<svg xmlns="http://www.w3.org/2000/svg" viewBox="0 0 64 64" role="img" aria-label="QuorumMind">
  <rect width="64" height="64" rx="16" fill="#1d4ed8"/>
  <path d="M20 40.5V24h8.6c5.1 0 8.5 3.4 8.5 8.2 0 1.9-.6 3.7-1.6 5.1l4.3 4.5-3.3 3-4.1-4.4a10 10 0 0 1-3.8.7H20Zm5-4.3h3.5c2.2 0 3.7-1.7 3.7-4s-1.5-4-3.7-4H25v8Z" fill="#fff"/>
  <circle cx="44" cy="22" r="4" fill="#5eead4"/>
  <circle cx="47" cy="42" r="3" fill="#bfdbfe"/>
  <path d="M44 26v7.8c0 2.9 1 5 3 6.2" fill="none" stroke="#bfdbfe" stroke-width="2.4" stroke-linecap="round"/>
</svg>
